<svg width="228" height="85" viewBox="0 0 228 85" fill="none" xmlns="http://www.w3.org/2000/svg">
<path d="M8.73864 31H1.10227L4.96591 7.72727H12.6364C14.9242 7.72727 16.8144 8.20454 18.3068 9.15909C19.7992 10.1061 20.8447 11.4621 21.4432 13.2273C22.0417 14.9848 22.1364 17.0871 21.7273 19.5341C21.3333 21.928 20.5606 23.9811 19.4091 25.6932C18.2652 27.3977 16.7917 28.7083 14.9886 29.625C13.1856 30.5417 11.1023 31 8.73864 31ZM5.13636 27.9318H8.88636C10.6591 27.9318 12.1932 27.5871 13.4886 26.8977C14.7917 26.2083 15.8485 25.2083 16.6591 23.8977C17.4697 22.5871 18.0303 20.9924 18.3409 19.1136C18.6439 17.3258 18.6174 15.8144 18.2614 14.5795C17.9053 13.3371 17.2159 12.3977 16.1932 11.7614C15.1705 11.1174 13.8106 10.7955 12.1136 10.7955H7.96591L5.13636 27.9318ZM23.9233 31L26.8324 13.5455H30.2301L27.321 31H23.9233ZM29.2415 10.8182C28.6506 10.8182 28.1506 10.6212 27.7415 10.2273C27.34 9.82576 27.1544 9.34848 27.1847 8.79545C27.215 8.23485 27.4498 7.75757 27.8892 7.36364C28.3286 6.96212 28.84 6.76136 29.4233 6.76136C30.0142 6.76136 30.5104 6.96212 30.9119 7.36364C31.3134 7.75757 31.5028 8.23485 31.4801 8.79545C31.4498 9.34848 31.215 9.82576 30.7756 10.2273C30.3438 10.6212 29.8324 10.8182 29.2415 10.8182ZM38.1193 37.9091C36.7254 37.9091 35.5587 37.7273 34.6193 37.3636C33.6875 37 32.9527 36.5189 32.4148 35.9205C31.8845 35.322 31.517 34.6667 31.3125 33.9545L34.4489 32.75C34.6004 33.0833 34.8125 33.4356 35.0852 33.8068C35.358 34.1856 35.7633 34.5076 36.3011 34.7727C36.8466 35.0379 37.5928 35.1705 38.5398 35.1705C39.8277 35.1705 40.9527 34.8561 41.9148 34.2273C42.8769 33.6061 43.4716 32.6136 43.6989 31.25L44.233 27.8182H44.017C43.7595 28.1894 43.4034 28.6023 42.9489 29.0568C42.4943 29.5114 41.9072 29.9053 41.1875 30.2386C40.4678 30.572 39.5739 30.7386 38.5057 30.7386C37.1269 30.7386 35.9375 30.4167 34.9375 29.7727C33.9451 29.1212 33.233 28.1629 32.8011 26.8977C32.3693 25.625 32.3087 24.0606 32.6193 22.2045C32.9223 20.3485 33.4981 18.7576 34.3466 17.4318C35.2027 16.1061 36.2405 15.0909 37.4602 14.3864C38.6875 13.6742 40.0019 13.3182 41.4034 13.3182C42.4867 13.3182 43.3314 13.5 43.9375 13.8636C44.5511 14.2197 45.0057 14.6364 45.3011 15.1136C45.5966 15.5909 45.8125 16.0114 45.9489 16.375H46.1989L46.6648 13.5455H49.9943L47.0398 31.3864C46.7973 32.8864 46.2481 34.1174 45.392 35.0795C44.5436 36.0417 43.4867 36.7538 42.2216 37.2159C40.964 37.678 39.5966 37.9091 38.1193 37.9091ZM39.6648 27.9205C40.6345 27.9205 41.4981 27.6932 42.2557 27.2386C43.0208 26.7765 43.6572 26.1174 44.1648 25.2614C44.6723 24.3977 45.0246 23.3636 45.2216 22.1591C45.4186 20.9848 45.4072 19.9508 45.1875 19.0568C44.9754 18.1629 44.5625 17.4659 43.9489 16.9659C43.3428 16.4583 42.5511 16.2045 41.5739 16.2045C40.5436 16.2045 39.6496 16.4697 38.892 17C38.1345 17.5227 37.517 18.2348 37.0398 19.1364C36.5701 20.0379 36.2405 21.0455 36.0511 22.1591C35.8693 23.303 35.8731 24.3068 36.0625 25.1705C36.2595 26.0341 36.6534 26.7083 37.2443 27.1932C37.8352 27.678 38.642 27.9205 39.6648 27.9205ZM51.642 31L54.5511 13.5455H57.9489L55.0398 31H51.642ZM56.9602 10.8182C56.3693 10.8182 55.8693 10.6212 55.4602 10.2273C55.0587 9.82576 54.8731 9.34848 54.9034 8.79545C54.9337 8.23485 55.1686 7.75757 55.608 7.36364C56.0473 6.96212 56.5587 6.76136 57.142 6.76136C57.733 6.76136 58.2292 6.96212 58.6307 7.36364C59.0322 7.75757 59.2216 8.23485 59.1989 8.79545C59.1686 9.34848 58.9337 9.82576 58.4943 10.2273C58.0625 10.6212 57.5511 10.8182 56.9602 10.8182ZM70.6676 13.5455L70.2244 16.2727H60.6903L61.1335 13.5455H70.6676ZM64.3722 9.36364H67.7699L65.0199 25.875C64.9138 26.5341 64.9328 27.0303 65.0767 27.3636C65.2206 27.6894 65.4403 27.9129 65.7358 28.0341C66.0388 28.1477 66.3759 28.2045 66.7472 28.2045C67.0199 28.2045 67.2585 28.1856 67.4631 28.1477C67.6676 28.1098 67.8305 28.0795 67.9517 28.0568L68.1335 30.8636C67.9063 30.9394 67.5994 31.0152 67.2131 31.0909C66.8343 31.1742 66.3722 31.2197 65.8267 31.2273C64.9328 31.2424 64.1259 31.0833 63.4062 30.75C62.6866 30.4091 62.1487 29.8939 61.7926 29.2045C61.4366 28.5076 61.3494 27.6326 61.5312 26.5795L64.3722 9.36364ZM76.5511 31.3864C75.4451 31.3864 74.4792 31.1818 73.6534 30.7727C72.8277 30.3561 72.2178 29.7538 71.8239 28.9659C71.4299 28.178 71.3277 27.2121 71.517 26.0682C71.6837 25.0833 72.0095 24.2727 72.4943 23.6364C72.9867 23 73.5852 22.4962 74.2898 22.125C74.9943 21.7462 75.7595 21.4621 76.5852 21.2727C77.411 21.0833 78.2443 20.9432 79.0852 20.8523C80.1458 20.7311 81.0057 20.6288 81.6648 20.5455C82.3314 20.4621 82.8314 20.3333 83.1648 20.1591C83.4981 19.9773 83.6989 19.6818 83.767 19.2727V19.1932C83.9261 18.2083 83.7822 17.4432 83.3352 16.8977C82.8958 16.3447 82.1307 16.0682 81.0398 16.0682C79.9034 16.0682 78.9489 16.3182 78.1761 16.8182C77.411 17.3182 76.8466 17.8788 76.483 18.5L73.4375 17.7727C73.983 16.7121 74.6761 15.8561 75.517 15.2045C76.3655 14.5455 77.2936 14.0682 78.3011 13.7727C79.3087 13.4697 80.339 13.3182 81.392 13.3182C82.089 13.3182 82.8125 13.4015 83.5625 13.5682C84.3125 13.7273 84.9943 14.0227 85.608 14.4545C86.2292 14.8864 86.6913 15.5038 86.9943 16.3068C87.2973 17.1023 87.3428 18.1364 87.1307 19.4091L85.2102 31H81.892L82.3011 28.6136H82.1648C81.8769 29.053 81.4754 29.4848 80.9602 29.9091C80.4527 30.3333 79.8314 30.6856 79.0966 30.9659C78.3617 31.2462 77.5133 31.3864 76.5511 31.3864ZM77.7102 28.6591C78.6572 28.6591 79.4943 28.4735 80.2216 28.1023C80.9564 27.7311 81.5511 27.2462 82.0057 26.6477C82.4602 26.0417 82.7443 25.3939 82.858 24.7045L83.233 22.4545C83.089 22.5758 82.8352 22.6856 82.4716 22.7841C82.1155 22.8826 81.714 22.9697 81.267 23.0455C80.8201 23.1212 80.3807 23.1856 79.9489 23.2386C79.5246 23.2917 79.1723 23.3409 78.892 23.3864C78.2254 23.4697 77.6004 23.6098 77.017 23.8068C76.4413 24.0038 75.9602 24.2879 75.5739 24.6591C75.1875 25.0227 74.9451 25.5076 74.8466 26.1136C74.7102 26.9545 74.911 27.5909 75.4489 28.0227C75.9943 28.447 76.7481 28.6591 77.7102 28.6591ZM96.9972 7.72727L93.1335 31H89.7358L93.5994 7.72727H96.9972Z" fill="black"/>
<path d="M78.375 57.4766C77.1562 59.2109 76.5469 60.9375 76.5469 62.6562C76.5469 64.4531 77.1484 65.7656 78.3516 66.5938C79.5547 67.4219 80.9844 67.8359 82.6406 67.8359C83.9062 67.8359 85.6406 67.6719 87.8438 67.3438C87.9219 67.2031 88.8359 66.2031 90.5859 64.3438C92.1797 62.6562 94.5938 59.9531 97.8281 56.2344C90.1094 56.5 83.625 56.9141 78.375 57.4766ZM105.141 51.9453C106.344 52.0859 108.039 52.3594 110.227 52.7656C112.414 53.1562 114.789 53.6172 117.352 54.1484C116.742 49.1797 115.773 43.8906 114.445 38.2812C112.727 41.3906 109.625 45.9453 105.141 51.9453ZM98.0625 36.8516C98.2188 36.4922 98.4219 36.1172 98.6719 35.7266C99.1406 34.8828 99.5312 34.1641 99.8438 33.5703C105.141 31.8984 110.094 31.0625 114.703 31.0625C116.172 31.0625 117.57 31.2188 118.898 31.5312C120.164 31.8281 121.195 32.3516 121.992 33.1016C122.773 33.8203 123.383 34.8984 123.82 36.3359C124.273 37.7734 124.625 39.5156 124.875 41.5625L125.414 45.7812L126.984 56.6797C127.609 61.1328 128.266 64.5859 128.953 67.0391C123.984 68.4922 120.461 69.7109 118.383 70.6953C118.383 68.9297 118.133 64.1328 117.633 56.3047C114.711 56.1172 112.727 56.0234 111.68 56.0234C110.555 56.0703 109.07 56.1484 107.227 56.2578C105.398 56.3516 103.688 56.4453 102.094 56.5391C96.1562 63.0859 91.3672 67.4219 87.7266 69.5469C84.0547 71.6875 80.6094 72.7578 77.3906 72.7578C74.2656 72.7578 71.7031 71.9766 69.7031 70.4141C67.6875 68.8672 66.6797 67.25 66.6797 65.5625C66.6797 63.6562 67.7344 61.5312 69.8438 59.1875C71.9219 56.875 74.6797 54.8359 78.1172 53.0703C81.5391 51.3359 85.6094 50.4688 90.3281 50.4688C91.4531 50.4688 92.5234 50.5 93.5391 50.5625C94.5703 50.625 95.7266 50.7266 97.0078 50.8672C98.3047 51.0078 99.6172 51.1719 100.945 51.3594L105.656 44.5391C106.578 43.1953 108.422 40.125 111.188 35.3281C109.344 35.375 107.297 35.5312 105.047 35.7969C102.812 36.0625 100.484 36.4141 98.0625 36.8516ZM132.492 49.1562L132.656 42.4062L139.758 43.0625L140.156 48.4766C140.531 47.4141 140.867 46.3828 141.164 45.3828C141.398 44.5547 141.656 43.9141 141.938 43.4609C142.188 43.0234 142.633 42.6406 143.273 42.3125C143.883 41.9844 144.617 41.8203 145.477 41.8203C146.445 41.8203 147.516 42.0469 148.688 42.5L147.914 45.4766C147.523 47.0859 147.031 48.8672 146.438 50.8203C144.562 49.5859 143.297 48.875 142.641 48.6875C141.391 50.3281 140.648 51.5703 140.414 52.4141C140.508 53.8203 140.609 54.9062 140.719 55.6719C142.125 56.1719 143.367 56.4219 144.445 56.4219C143.789 58.2656 142.984 60.2812 142.031 62.4688C138.781 62.4688 136.789 62.2734 136.055 61.8828C135.289 61.5078 134.492 60.8672 133.664 59.9609C132.82 59.0391 132.398 57.2891 132.398 54.7109C132.398 53.0234 132.43 51.1719 132.492 49.1562ZM158.578 46.5547C157.75 47.9453 157.336 49.3828 157.336 50.8672C157.336 54.9141 159.406 57.3828 163.547 58.2734C163.938 56.7109 164.133 55.1797 164.133 53.6797C164.133 51.2734 163.562 49.5469 162.422 48.5C161.297 47.4688 160.016 46.8203 158.578 46.5547ZM168.633 42.7812L167.367 44.9375C168.539 45.2969 169.492 46.0547 170.227 47.2109C170.977 48.3828 171.352 49.8281 171.352 51.5469C171.352 53.2031 171.031 54.7422 170.391 56.1641C169.734 57.5703 169.039 58.5938 168.305 59.2344C167.555 59.9062 166.266 60.6953 164.438 61.6016C164.109 61.7578 163.648 62.0469 163.055 62.4688C162.602 62.8125 162.211 63.0703 161.883 63.2422C158.836 63.2266 156.062 62.3672 153.562 60.6641C151.062 59.0078 149.812 56.9141 149.812 54.3828C149.812 50.2578 152.664 46.3047 158.367 42.5234C160.977 42.7578 163.188 42.875 165 42.875C166.344 42.875 167.555 42.8438 168.633 42.7812ZM160.781 34.9531L156.844 39.6641L154.898 38.8203L160.219 32.3984L164.391 32.3047L169.125 38L165.773 39.6641L160.781 34.9531ZM174.469 47.0234V44.1406C176.531 43.7656 179.047 43.1328 182.016 42.2422L182.109 45.9688C183.734 44.3125 184.938 43.0703 185.719 42.2422C189.859 43.0078 192.195 44.2891 192.727 46.0859C193.711 44.8828 194.898 43.6016 196.289 42.2422C198.258 42.3047 199.945 42.6484 201.352 43.2734C202.727 43.8828 203.672 44.6641 204.188 45.6172C204.703 46.5703 204.961 47.8906 204.961 49.5781C204.961 50.875 204.867 52.5 204.68 54.4531C204.555 55.8281 204.492 56.7812 204.492 57.3125C204.492 57.7031 204.531 58.5078 204.609 59.7266C202.75 61.4297 200.164 63.1875 196.852 65C197.039 63.7969 197.195 61.7734 197.32 58.9297L197.367 58.3906C197.445 56.9531 197.484 55.8281 197.484 55.0156C197.484 52.8438 197.266 51.2422 196.828 50.2109C196.375 49.1484 195.641 48.1406 194.625 47.1875C193.969 48.8438 193.555 49.8359 193.383 50.1641C193.445 51.4141 193.477 53.0625 193.477 55.1094C193.477 57.6406 193.414 59.8672 193.289 61.7891C189.664 62.3984 187.273 62.9531 186.117 63.4531C186.133 62.4062 186.141 61.4844 186.141 60.6875C186.141 53.6562 185.328 49.2578 183.703 47.4922L182.203 50.1641L182.508 62.0703C178.164 62.4922 175.273 62.8359 173.836 63.1016C174.258 58.1328 174.469 52.7734 174.469 47.0234ZM216.07 46.8828L215.461 52.6016C216.82 52.6016 218.281 52.5547 219.844 52.4609C219.875 51.4297 219.891 50.9375 219.891 50.9844C219.891 49.6562 219.539 48.6562 218.836 47.9844C218.117 47.2969 217.195 46.9297 216.07 46.8828ZM208.992 46.6484L214.266 42.1719L220.57 42.6406C222.602 42.8125 224.039 43.3203 224.883 44.1641C225.758 45.0391 226.195 45.9922 226.195 47.0234C226.195 47.4766 226.133 48.0625 226.008 48.7812C225.836 49.625 225.656 50.8828 225.469 52.5547C223.328 53.6641 221.703 54.3125 220.594 54.5C219.469 54.6875 218.391 54.7812 217.359 54.7812C216.969 54.7812 216.484 54.7422 215.906 54.6641C217.438 56.5703 218.93 57.5234 220.383 57.5234C222.102 57.5234 223.648 56.875 225.023 55.5781H225.211C223.648 60.4531 220.758 62.8906 216.539 62.8906C214.352 62.8906 212.766 62.5859 211.781 61.9766C210.797 61.3672 210.047 60.4844 209.531 59.3281C209 58.2031 208.734 56.0703 208.734 52.9297L208.852 48.9219L208.992 46.6484Z" fill="#7A5656"/>
</svg>
